<svg width="63" height="63" viewBox="0 0 63 63" fill="none" xmlns="http://www.w3.org/2000/svg">
<rect x="61" width="63" height="59" transform="rotate(90 61 0)" fill="white"/>
<rect x="63" y="3.70587" width="55.5882" height="63" transform="rotate(90 63 3.70587)" fill="white"/>
<rect x="56.3175" y="2.77942" width="57.4412" height="49.6349" transform="rotate(90 56.3175 2.77942)" fill="#55CCFF"/>
<rect x="58" y="6.15833" width="50.6834" height="53" transform="rotate(90 58 6.15833)" fill="#55CCFF"/>
<rect x="45" y="23.1617" width="2.77941" height="28" transform="rotate(90 45 23.1617)" fill="white"/>
<rect x="43" y="25.9412" width="2.77941" height="24" transform="rotate(90 43 25.9412)" fill="white"/>
<rect x="41" y="28.7206" width="2.77941" height="20" transform="rotate(90 41 28.7206)" fill="white"/>
<rect x="39" y="31.5" width="2.77941" height="15" transform="rotate(90 39 31.5)" fill="white"/>
<rect x="36" y="34.2794" width="2.77941" height="9" transform="rotate(90 36 34.2794)" fill="white"/>
<rect x="35" y="37.0588" width="2.77941" height="6" transform="rotate(90 35 37.0588)" fill="white"/>
</svg>
