<svg width="63" height="63" viewBox="0 0 63 63" fill="none" xmlns="http://www.w3.org/2000/svg">
<rect x="63" y="61" width="63" height="59" transform="rotate(-180 63 61)" fill="white"/>
<rect x="59.2941" y="63" width="55.5882" height="63" transform="rotate(-180 59.2941 63)" fill="white"/>
<rect x="60.2206" y="56.3174" width="57.4412" height="49.6349" transform="rotate(-180 60.2206 56.3174)" fill="#55CCFF"/>
<rect x="56.8417" y="58" width="50.6834" height="53" transform="rotate(-180 56.8417 58)" fill="#55CCFF"/>
<rect x="39.8383" y="45" width="2.77941" height="28" transform="rotate(-180 39.8383 45)" fill="white"/>
<rect x="37.0588" y="43" width="2.77941" height="24" transform="rotate(-180 37.0588 43)" fill="white"/>
<rect x="34.2794" y="41" width="2.77941" height="20" transform="rotate(-180 34.2794 41)" fill="white"/>
<rect x="31.5" y="39" width="2.77941" height="15" transform="rotate(-180 31.5 39)" fill="white"/>
<rect x="28.7206" y="36" width="2.77941" height="9" transform="rotate(-180 28.7206 36)" fill="white"/>
<rect x="25.9412" y="35" width="2.77941" height="6" transform="rotate(-180 25.9412 35)" fill="white"/>
</svg>
