<svg width="63" height="63" viewBox="0 0 63 63" fill="none" xmlns="http://www.w3.org/2000/svg">
<rect x="2" y="63" width="63" height="59" transform="rotate(-90 2 63)" fill="white"/>
<rect y="59.2941" width="55.5882" height="63" transform="rotate(-90 0 59.2941)" fill="white"/>
<rect x="6.6825" y="60.2206" width="57.4412" height="49.6349" transform="rotate(-90 6.6825 60.2206)" fill="#55CCFF"/>
<rect x="5" y="56.8417" width="50.6834" height="53" transform="rotate(-90 5 56.8417)" fill="#55CCFF"/>
<rect x="18" y="39.8383" width="2.77941" height="28" transform="rotate(-90 18 39.8383)" fill="white"/>
<rect x="20" y="37.0588" width="2.77941" height="24" transform="rotate(-90 20 37.0588)" fill="white"/>
<rect x="22" y="34.2794" width="2.77941" height="20" transform="rotate(-90 22 34.2794)" fill="white"/>
<rect x="24" y="31.5" width="2.77941" height="15" transform="rotate(-90 24 31.5)" fill="white"/>
<rect x="27" y="28.7206" width="2.77941" height="9" transform="rotate(-90 27 28.7206)" fill="white"/>
<rect x="28" y="25.9412" width="2.77941" height="6" transform="rotate(-90 28 25.9412)" fill="white"/>
</svg>
